<svg width="26" height="26" viewBox="0 0 26 26" fill="none" xmlns="http://www.w3.org/2000/svg">
<path d="M12.6445 17.8966L11.5804 20.333C11.1712 21.2696 9.87565 21.2696 9.46649 20.333L8.40241 17.8966C7.45595 15.7282 5.75182 14.0024 3.62615 13.0591L0.698241 11.7592C-0.232747 11.3457 -0.232747 9.99188 0.698241 9.57838L3.53515 8.31932C5.7153 7.35181 7.44976 5.56164 8.38013 3.31959L9.45782 0.722847C9.8577 -0.240949 11.1892 -0.240949 11.5891 0.722847L12.6668 3.31959C13.5971 5.56164 15.3316 7.35181 17.5117 8.31932L20.3486 9.57838C21.2796 9.99188 21.2796 11.3457 20.3486 11.7592L17.4207 13.0591C15.2951 14.0024 13.5909 15.7289 12.6445 17.8966Z" fill="#2196F3"/>
<path d="M21.9279 24.914L21.6227 25.6141C21.3993 26.1266 20.6899 26.1266 20.4664 25.6141L20.1612 24.914C19.6171 23.6661 18.636 22.6726 17.4128 22.1285L16.472 21.7106C15.9631 21.4847 15.9631 20.745 16.472 20.519L17.3602 20.1241C18.615 19.5664 19.6134 18.5364 20.1482 17.2457L20.4621 16.4893C20.6806 15.9619 21.4098 15.9619 21.6283 16.4893L21.9421 17.2457C22.4769 18.5364 23.4754 19.5664 24.7301 20.1241L25.6184 20.519C26.1272 20.745 26.1272 21.4847 25.6184 21.7106L24.6775 22.1285C23.4531 22.6726 22.4726 23.6661 21.9279 24.914Z" fill="#7E57C2"/>
</svg>
