<svg width="23" height="29" viewBox="0 0 23 29" fill="none" xmlns="http://www.w3.org/2000/svg">
<path d="M5.3125 28.25C3.98333 28.25 2.84896 27.7802 1.90938 26.8406C0.969792 25.901 0.5 24.7667 0.5 23.4375V5.5625C0.5 4.23333 0.969792 3.09896 1.90938 2.15938C2.84896 1.21979 3.98333 0.75 5.3125 0.75H22.5V21.375C21.9271 21.375 21.4401 21.5755 21.0391 21.9766C20.638 22.3776 20.4375 22.8646 20.4375 23.4375C20.4375 24.0104 20.638 24.4974 21.0391 24.8984C21.4401 25.2995 21.9271 25.5 22.5 25.5V28.25H5.3125ZM3.25 19.0719C3.57083 18.9115 3.90313 18.7969 4.24688 18.7281C4.59063 18.6594 4.94583 18.625 5.3125 18.625H6V3.5H5.3125C4.73958 3.5 4.2526 3.70052 3.85156 4.10156C3.45052 4.5026 3.25 4.98958 3.25 5.5625V19.0719ZM8.75 18.625H19.75V3.5H8.75V18.625ZM5.3125 25.5H18.1344C17.9969 25.1792 17.888 24.8526 17.8078 24.5203C17.7276 24.188 17.6875 23.8271 17.6875 23.4375C17.6875 23.0708 17.7219 22.7156 17.7906 22.3719C17.8594 22.0281 17.974 21.6958 18.1344 21.375H5.3125C4.71667 21.375 4.22396 21.5755 3.83438 21.9766C3.44479 22.3776 3.25 22.8646 3.25 23.4375C3.25 24.0333 3.44479 24.526 3.83438 24.9156C4.22396 25.3052 4.71667 25.5 5.3125 25.5Z" fill="#1F1F1F"/>
</svg>
