<svg width="17" height="27" viewBox="0 0 17 27" fill="none" xmlns="http://www.w3.org/2000/svg">
<path d="M17 18.5625C17 20.9025 16.1727 22.8938 14.518 24.5363C12.8633 26.1788 10.8573 27 8.5 27C6.14267 27 4.13667 26.1788 2.482 24.5363C0.827333 22.8938 0 20.9025 0 18.5625V6.075C0 4.3875 0.595 2.95312 1.785 1.77188C2.975 0.590625 4.42 0 6.12 0C7.82 0 9.265 0.590625 10.455 1.77188C11.645 2.95312 12.24 4.3875 12.24 6.075V17.8875C12.24 18.9225 11.8773 19.8 11.152 20.52C10.4267 21.24 9.54267 21.6 8.5 21.6C7.45733 21.6 6.57333 21.24 5.848 20.52C5.12267 19.8 4.76 18.9225 4.76 17.8875V5.4H7.48V17.8875C7.48 18.18 7.57633 18.4219 7.769 18.6131C7.96167 18.8044 8.20533 18.9 8.5 18.9C8.79467 18.9 9.03833 18.8044 9.231 18.6131C9.42367 18.4219 9.52 18.18 9.52 17.8875V6.075C9.49733 5.13 9.163 4.33125 8.517 3.67875C7.871 3.02625 7.072 2.7 6.12 2.7C5.168 2.7 4.36333 3.02625 3.706 3.67875C3.04867 4.33125 2.72 5.13 2.72 6.075V18.5625C2.69733 20.16 3.25267 21.5156 4.386 22.6294C5.51933 23.7431 6.89067 24.3 8.5 24.3C10.0867 24.3 11.4353 23.7431 12.546 22.6294C13.6567 21.5156 14.2347 20.16 14.28 18.5625V5.4H17V18.5625Z" fill="#1F1F1F"/>
</svg>
