<svg width="21" height="25" viewBox="0 0 21 25" fill="none" xmlns="http://www.w3.org/2000/svg">
<path d="M17.0802 3.06389L5.72482 2.925V2.22778C5.85922 1.4625 5.79202 1.67222 6.26242 1.25417C6.53122 0.975 7.20322 1.11528 7.33762 1.11528V1.39306H9.21922V0H7.33622V0.347222C7.33622 0.347222 6.52982 0.347222 5.99222 0.695833C5.38742 1.04444 5.05142 1.74028 5.05142 2.22778V2.925H3.90902C3.23702 2.925 1.82582 4.31806 1.69142 5.43194L0.416016 11.6986C0.416016 13.0222 1.08802 14.0667 2.29762 14.0667H8.95042V19.0111C6.86722 19.4278 5.79202 20.5431 5.79202 21.9361C5.79202 23.6764 7.87522 25 10.496 25C13.1168 25 15.2 23.6069 15.2 21.9361C15.2 20.5431 14.0576 19.4292 12.0416 19.0111V13.9972H18.6944C19.904 13.9972 20.576 12.9528 20.576 11.6292L19.2992 5.3625C19.0304 4.03889 18.2912 3.06389 17.0816 3.06389M12.8494 22.0056C12.8494 22.7014 11.707 23.3292 10.4302 23.3292C9.22062 23.3292 8.01102 22.7708 8.01102 22.0056C8.01102 21.4486 8.54862 21.0306 9.42222 20.8222V21.3778C9.42222 21.4472 9.42222 21.5181 9.48942 21.5181C9.62382 21.9347 9.95982 22.2139 10.4302 22.2139C10.9006 22.2139 11.2366 21.9361 11.371 21.5181C11.4382 21.4486 11.4382 21.4486 11.4382 21.3792V20.8222C12.3118 20.9611 12.8494 21.4472 12.8494 22.0056ZM9.82542 20.4042V14.2056H11.035V20.4042C11.0371 20.4848 11.023 20.565 10.9937 20.6402C10.9643 20.7154 10.9203 20.784 10.8641 20.8423C10.8078 20.9005 10.7406 20.9471 10.6661 20.9794C10.5916 21.0117 10.5115 21.0291 10.4302 21.0306C10.0942 21.0306 9.82542 20.8222 9.82542 20.4042ZM17.4862 12.3958H3.37282C2.90242 12.3958 2.56642 11.9778 2.56642 11.5597L3.64022 5.57083C3.64022 5.08472 4.24502 4.73472 4.71542 4.73472V5.3625C4.37942 5.43194 4.17782 5.57083 4.17782 5.77917C4.17782 6.05833 4.51382 6.19722 4.84982 6.19722C5.25302 6.19722 5.52182 5.98889 5.52182 5.78056C5.52182 5.57222 5.32022 5.36111 4.98422 5.36111V4.66389H16.1394C16.6098 4.66389 17.2146 5.08194 17.2146 5.5L18.2898 11.4889C18.2898 12.0458 17.9538 12.3944 17.4834 12.3944" fill="black"/>
</svg>
