<svg width="40" height="36" viewBox="0 0 40 36" fill="none" xmlns="http://www.w3.org/2000/svg">
<path d="M2 12.9156C2 18.9459 5.98543 23.8311 10.901 23.8311C15.8165 23.8311 19.8047 18.9459 19.8047 12.9156C19.8047 6.88527 15.8165 2 10.901 2C5.98543 2 2 6.88527 2 12.9156ZM4.00651 12.9156C4.00651 8.24684 7.09494 4.46068 10.901 4.46068C14.707 4.46068 17.7954 8.24356 17.7954 12.9156C17.7954 17.5876 14.7098 21.3705 10.901 21.3705C7.09218 21.3705 4.00651 17.5843 4.00651 12.9156Z" fill="white" stroke="#1A1A1A" stroke-width="3" stroke-miterlimit="10"/>
<path d="M12.1073 24.7224C11.6089 24.7433 11.2869 25.4051 11.5169 25.9506C13.393 30.3564 16.9157 33.5872 21.2204 34.2629C25.525 34.9386 30.1006 33.501 32.8589 29.6783C33.1415 29.2854 33.0717 28.6749 32.7152 28.4025L31.3547 27.355C31.112 27.1681 30.7971 27.1863 30.5726 27.4125C28.4043 29.5832 24.4215 31.1409 21.6096 30.6995C18.7977 30.2581 15.9584 27.7207 14.3775 25.0021C14.2459 24.7741 14.0372 24.6421 13.8098 24.6515L12.1063 24.7313L12.1073 24.7224Z" fill="#1A1A1A" stroke="#1A1A1A" stroke-width="1.5" stroke-miterlimit="10"/>
<path d="M30.8191 23.9463C27.0126 23.9463 23.9286 19.6988 23.9286 14.4572C23.9286 14.4572 23.9209 4.53117 23.9209 3.96404C23.9209 3.39691 24.0702 3.39691 24.2815 3.39691H25.3381C25.5048 3.39691 25.6139 3.39691 25.6139 3.96404V14.5615C25.6139 18.5188 27.9458 21.7264 30.8191 21.7264C33.6924 21.7264 36.0374 18.5188 36.0374 14.5615V3.96404C36.0374 3.39691 36.1465 3.39691 36.3132 3.39691H37.3698C37.5811 3.39691 37.7304 3.39691 37.7304 3.96404C37.7304 4.53117 37.7227 14.4572 37.7227 14.4572C37.7227 19.6988 34.6257 23.9463 30.8191 23.9463Z" fill="white" stroke="#1A1A1A" stroke-width="3" stroke-miterlimit="10"/>
</svg>
