<svg width="367" height="288" viewBox="0 0 367 288" fill="none" xmlns="http://www.w3.org/2000/svg">
<path d="M8 101.537C8 153.211 48.9379 195.073 99.4299 195.073C149.922 195.073 190.888 153.211 190.888 101.537C190.888 49.8624 149.922 8 99.4299 8C48.9379 8 8 49.8624 8 101.537ZM28.6107 101.537C28.6107 61.5299 60.3347 29.0858 99.4299 29.0858C138.525 29.0858 170.249 61.5018 170.249 101.537C170.249 141.572 138.553 173.988 99.4299 173.988C60.3064 173.988 28.6107 141.544 28.6107 101.537Z" fill="#E1E3EF" stroke="#E1E3EF" stroke-width="15" stroke-miterlimit="10"/>
<path d="M96.1547 190.346C91.0352 190.526 87.7275 196.196 90.0909 200.871C109.362 238.625 145.547 266.31 189.763 272.1C233.98 277.89 282.648 260.391 310.981 227.634C313.884 224.267 313.167 219.035 309.505 216.701L295.53 207.725C293.037 206.124 289.802 206.279 287.496 208.218C265.224 226.818 222.646 245.347 193.762 241.565C164.878 237.783 135.713 216.039 119.474 192.743C118.122 190.789 115.979 189.659 113.643 189.739L96.1447 190.422L96.1547 190.346Z" fill="#E1E3EF" stroke="#E1E3EF" stroke-width="5" stroke-miterlimit="10"/>
<path d="M284.13 195.374C243.444 195.374 210.482 159.02 210.482 114.156C210.482 114.156 210.399 29.1981 210.399 24.344C210.399 19.4899 211.995 19.4899 214.254 19.4899H225.547C227.329 19.4899 228.495 19.4899 228.495 24.344V115.049C228.495 148.92 253.419 176.374 284.13 176.374C314.841 176.374 339.905 148.92 339.905 115.049V24.344C339.905 19.4899 341.071 19.4899 342.853 19.4899H354.146C356.405 19.4899 358 19.4899 358 24.344C358 29.1981 357.918 114.156 357.918 114.156C357.918 159.02 324.816 195.374 284.13 195.374Z" fill="#E1E3EF" stroke="#E1E3EF" stroke-width="18" stroke-miterlimit="10"/>
</svg>
