<svg width="165" height="43" viewBox="0 0 165 43" fill="none" xmlns="http://www.w3.org/2000/svg">
<rect width="43.3333" height="40" rx="10" fill="#1A1A1A"/>
<path d="M3.56873 16.7251C3.56873 21.7557 7.55415 25.8312 12.4697 25.8312C17.3852 25.8312 21.3734 21.7557 21.3734 16.7251C21.3734 11.6944 17.3852 7.61902 12.4697 7.61902C7.55415 7.61902 3.56873 11.6944 3.56873 16.7251ZM5.57524 16.7251C5.57524 12.8303 8.66367 9.67179 12.4697 9.67179C16.2757 9.67179 19.3642 12.8276 19.3642 16.7251C19.3642 20.6226 16.2785 23.7784 12.4697 23.7784C8.66091 23.7784 5.57524 20.6199 5.57524 16.7251Z" fill="white" stroke="white" stroke-width="3" stroke-miterlimit="10"/>
<path d="M13.6756 26.5747C13.1772 26.5922 12.8552 27.1442 13.0853 27.5993C14.9614 31.2748 18.4841 33.97 22.7887 34.5336C27.0933 35.0973 31.6689 33.898 34.4272 30.7091C34.7099 30.3813 34.6401 29.8719 34.2836 29.6447L32.923 28.7708C32.6804 28.615 32.3654 28.6301 32.1409 28.8189C29.9726 30.6297 25.9899 31.9292 23.178 31.561C20.3661 31.1927 17.5268 29.0759 15.9458 26.808C15.8143 26.6178 15.6056 26.5077 15.3781 26.5156L13.6747 26.5821L13.6756 26.5747Z" fill="white" stroke="white" stroke-width="1.5" stroke-miterlimit="10"/>
<path d="M32.3882 25.9272C28.5817 25.9272 25.4977 22.3839 25.4977 18.0112C25.4977 18.0112 25.49 9.73059 25.49 9.25748C25.49 8.78436 25.6393 8.78436 25.8506 8.78436H26.9072C27.0739 8.78436 27.183 8.78436 27.183 9.25748V18.0982C27.183 21.3995 29.5149 24.0753 32.3882 24.0753C35.2615 24.0753 37.6065 21.3995 37.6065 18.0982V9.25748C37.6065 8.78436 37.7156 8.78436 37.8823 8.78436H38.9389C39.1502 8.78436 39.2995 8.78436 39.2995 9.25748C39.2995 9.73059 39.2918 18.0112 39.2918 18.0112C39.2918 22.3839 36.1948 25.9272 32.3882 25.9272Z" fill="white" stroke="white" stroke-width="3" stroke-miterlimit="10"/>
<path d="M50.752 37V19.528H53.896V24.712L53.848 28.456C54.248 27.832 54.672 27.232 55.12 26.656C55.584 26.064 56.096 25.432 56.656 24.76L61.24 19.528H65.128L58.432 27.088L65.248 37H61.552L56.272 29.176L53.896 31.768V37H50.752ZM70.531 29.32V37H67.483V23.896H70.387L70.411 26.512C71.195 24.656 72.547 23.728 74.467 23.728C75.811 23.728 76.891 24.16 77.707 25.024C78.523 25.888 78.931 27.104 78.931 28.672V37H75.883V29.128C75.883 28.264 75.659 27.584 75.211 27.088C74.763 26.576 74.139 26.32 73.339 26.32C72.523 26.32 71.851 26.584 71.323 27.112C70.795 27.64 70.531 28.376 70.531 29.32ZM87.8663 37.264C86.6023 37.264 85.4983 36.984 84.5543 36.424C83.6103 35.848 82.8823 35.056 82.3703 34.048C81.8583 33.04 81.6023 31.864 81.6023 30.52C81.6023 29.16 81.8583 27.976 82.3703 26.968C82.8823 25.944 83.6103 25.152 84.5543 24.592C85.4983 24.016 86.6023 23.728 87.8663 23.728C89.1463 23.728 90.2503 24.016 91.1783 24.592C92.1223 25.152 92.8503 25.944 93.3623 26.968C93.8743 27.976 94.1303 29.16 94.1303 30.52C94.1303 31.864 93.8743 33.04 93.3623 34.048C92.8503 35.056 92.1223 35.848 91.1783 36.424C90.2503 36.984 89.1463 37.264 87.8663 37.264ZM87.8663 34.792C88.5863 34.792 89.1783 34.6 89.6423 34.216C90.1063 33.832 90.4583 33.32 90.6983 32.68C90.9383 32.024 91.0583 31.296 91.0583 30.496C91.0583 29.696 90.9383 28.976 90.6983 28.336C90.4583 27.68 90.1063 27.16 89.6423 26.776C89.1783 26.392 88.5863 26.2 87.8663 26.2C87.1623 26.2 86.5783 26.392 86.1143 26.776C85.6503 27.16 85.2983 27.68 85.0583 28.336C84.8343 28.976 84.7223 29.696 84.7223 30.496C84.7223 31.296 84.8343 32.024 85.0583 32.68C85.2983 33.32 85.6503 33.832 86.1143 34.216C86.5783 34.6 87.1623 34.792 87.8663 34.792ZM104.435 37.24C102.899 37.24 101.523 36.888 100.307 36.184C99.1073 35.464 98.1553 34.44 97.4513 33.112C96.7473 31.768 96.3953 30.16 96.3953 28.288C96.3953 26.4 96.7473 24.792 97.4513 23.464C98.1553 22.12 99.1073 21.096 100.307 20.392C101.523 19.672 102.899 19.312 104.435 19.312C105.955 19.312 107.315 19.672 108.515 20.392C109.731 21.096 110.683 22.12 111.371 23.464C112.075 24.792 112.427 26.4 112.427 28.288C112.427 29.856 112.171 31.248 111.659 32.464C111.163 33.664 110.475 34.64 109.595 35.392L112.019 38.512H109.019L107.555 36.64C106.595 37.04 105.555 37.24 104.435 37.24ZM103.451 31.168H106.259L107.723 33.064C108.219 32.552 108.603 31.896 108.875 31.096C109.147 30.296 109.283 29.36 109.283 28.288C109.283 26.288 108.827 24.76 107.915 23.704C107.019 22.632 105.859 22.096 104.435 22.096C102.995 22.096 101.819 22.632 100.907 23.704C99.9953 24.76 99.5393 26.288 99.5393 28.288C99.5393 30.272 99.9953 31.792 100.907 32.848C101.819 33.904 102.995 34.432 104.435 34.432C104.915 34.432 105.363 34.368 105.779 34.24L103.451 31.168ZM119.854 37.168C118.51 37.168 117.422 36.736 116.59 35.872C115.774 35.008 115.366 33.792 115.366 32.224V23.896H118.414V31.768C118.414 32.632 118.638 33.32 119.086 33.832C119.55 34.328 120.182 34.576 120.982 34.576C121.798 34.576 122.462 34.312 122.974 33.784C123.502 33.256 123.766 32.52 123.766 31.576V23.896H126.838V37H123.934L123.91 34.384C123.142 36.24 121.79 37.168 119.854 37.168ZM135.869 37.264C134.541 37.264 133.397 36.992 132.437 36.448C131.493 35.888 130.765 35.104 130.253 34.096C129.741 33.088 129.485 31.896 129.485 30.52C129.485 29.176 129.733 28 130.229 26.992C130.741 25.968 131.461 25.168 132.389 24.592C133.317 24.016 134.405 23.728 135.653 23.728C136.725 23.728 137.709 23.96 138.605 24.424C139.517 24.888 140.253 25.608 140.813 26.584C141.373 27.56 141.653 28.816 141.653 30.352V31.312H132.533C132.565 32.464 132.885 33.352 133.493 33.976C134.117 34.584 134.917 34.888 135.893 34.888C136.565 34.888 137.141 34.744 137.621 34.456C138.101 34.152 138.445 33.728 138.653 33.184L141.461 33.76C141.141 34.816 140.485 35.664 139.493 36.304C138.517 36.944 137.309 37.264 135.869 37.264ZM132.533 29.224H138.677C138.581 28.296 138.277 27.552 137.765 26.992C137.269 26.416 136.573 26.128 135.677 26.128C134.749 26.128 134.013 26.432 133.469 27.04C132.925 27.632 132.613 28.36 132.533 29.224ZM149.209 37.264C147.705 37.264 146.457 36.944 145.465 36.304C144.489 35.664 143.889 34.744 143.665 33.544L146.521 33.016C146.857 34.296 147.769 34.936 149.257 34.936C150.009 34.936 150.601 34.784 151.033 34.48C151.481 34.176 151.705 33.808 151.705 33.376C151.705 32.624 151.121 32.12 149.953 31.864L147.697 31.384C145.249 30.856 144.025 29.632 144.025 27.712C144.025 26.896 144.249 26.192 144.697 25.6C145.145 25.008 145.761 24.552 146.545 24.232C147.345 23.896 148.265 23.728 149.305 23.728C150.793 23.728 151.969 24.04 152.833 24.664C153.697 25.272 154.265 26.088 154.537 27.112L151.801 27.64C151.657 27.192 151.385 26.808 150.985 26.488C150.601 26.168 150.057 26.008 149.353 26.008C148.713 26.008 148.169 26.152 147.721 26.44C147.289 26.728 147.073 27.088 147.073 27.52C147.073 27.904 147.217 28.224 147.505 28.48C147.793 28.72 148.273 28.912 148.945 29.056L151.153 29.536C153.601 30.064 154.825 31.24 154.825 33.064C154.825 33.896 154.585 34.632 154.105 35.272C153.641 35.896 152.985 36.384 152.137 36.736C151.289 37.088 150.313 37.264 149.209 37.264ZM163.485 23.896V26.296H160.941V33.304C160.941 33.784 161.037 34.136 161.229 34.36C161.437 34.584 161.781 34.696 162.261 34.696C162.389 34.696 162.565 34.68 162.789 34.648C163.029 34.6 163.221 34.56 163.365 34.528L163.845 36.904C163.509 37 163.165 37.064 162.813 37.096C162.461 37.144 162.125 37.168 161.805 37.168C160.541 37.168 159.573 36.856 158.901 36.232C158.229 35.608 157.893 34.72 157.893 33.568V26.296H156.045V23.896H157.893V20.776H160.941V23.896H163.485Z" fill="black"/>
</svg>
