<svg width="320" height="79" viewBox="0 0 320 79" fill="none" xmlns="http://www.w3.org/2000/svg">
<rect width="85" height="78.4615" rx="10" fill="#1A1A1A"/>
<path d="M7 32.807C7 42.6748 14.8176 50.6689 24.4596 50.6689C34.1016 50.6689 41.9246 42.6748 41.9246 32.807C41.9246 22.9392 34.1016 14.9451 24.4596 14.9451C14.8176 14.9451 7 22.9392 7 32.807ZM10.9359 32.807C10.9359 25.1672 16.9939 18.9716 24.4596 18.9716C31.9253 18.9716 37.9833 25.1618 37.9833 32.807C37.9833 40.4521 31.9307 46.6423 24.4596 46.6423C16.9885 46.6423 10.9359 40.4467 10.9359 32.807Z" fill="white" stroke="white" stroke-width="5" stroke-miterlimit="10"/>
<path d="M26.8257 52.1273C25.848 52.1616 25.2164 53.2444 25.6677 54.1371C29.3477 61.3467 36.2577 66.6334 44.7013 67.7391C53.145 68.8448 62.1202 66.4923 67.5308 60.237C68.0852 59.5941 67.9482 58.595 67.249 58.1494L64.5802 56.4352C64.1042 56.1294 63.4864 56.1592 63.0461 56.5294C58.7929 60.0813 50.9806 62.6304 45.4649 61.9081C39.9492 61.1858 34.3798 57.0336 31.2788 52.585C31.0207 52.2119 30.6113 51.996 30.1652 52.0114L26.8238 52.1418L26.8257 52.1273Z" fill="white" stroke="white" stroke-width="3.5" stroke-miterlimit="10"/>
<path d="M63.5311 50.8571C56.0644 50.8571 50.0151 43.9068 50.0151 35.3295C50.0151 35.3295 50 19.0868 50 18.1588C50 17.2308 50.2929 17.2308 50.7074 17.2308H52.7798C53.1069 17.2308 53.3209 17.2308 53.3209 18.1588V35.5002C53.3209 41.9758 57.8951 47.2246 63.5311 47.2246C69.1672 47.2246 73.767 41.9758 73.767 35.5002V18.1588C73.767 17.2308 73.981 17.2308 74.3081 17.2308H76.3806C76.7951 17.2308 77.0879 17.2308 77.0879 18.1588C77.0879 19.0868 77.0728 35.3295 77.0728 35.3295C77.0728 43.9068 70.9979 50.8571 63.5311 50.8571Z" fill="white" stroke="white" stroke-width="5.5" stroke-miterlimit="10"/>
<path d="M106.285 67V34.24H112.18V43.96L112.09 50.98C112.84 49.81 113.635 48.685 114.475 47.605C115.345 46.495 116.305 45.31 117.355 44.05L125.95 34.24H133.24L120.685 48.415L133.465 67H126.535L116.635 52.33L112.18 57.19V67H106.285ZM143.371 52.6V67H137.656V42.43H143.101L143.146 47.335C144.616 43.855 147.151 42.115 150.751 42.115C153.271 42.115 155.296 42.925 156.826 44.545C158.356 46.165 159.121 48.445 159.121 51.385V67H153.406V52.24C153.406 50.62 152.986 49.345 152.146 48.415C151.306 47.455 150.136 46.975 148.636 46.975C147.106 46.975 145.846 47.47 144.856 48.46C143.866 49.45 143.371 50.83 143.371 52.6ZM175.874 67.495C173.504 67.495 171.434 66.97 169.664 65.92C167.894 64.84 166.529 63.355 165.569 61.465C164.609 59.575 164.129 57.37 164.129 54.85C164.129 52.3 164.609 50.08 165.569 48.19C166.529 46.27 167.894 44.785 169.664 43.735C171.434 42.655 173.504 42.115 175.874 42.115C178.274 42.115 180.344 42.655 182.084 43.735C183.854 44.785 185.219 46.27 186.179 48.19C187.139 50.08 187.619 52.3 187.619 54.85C187.619 57.37 187.139 59.575 186.179 61.465C185.219 63.355 183.854 64.84 182.084 65.92C180.344 66.97 178.274 67.495 175.874 67.495ZM175.874 62.86C177.224 62.86 178.334 62.5 179.204 61.78C180.074 61.06 180.734 60.1 181.184 58.9C181.634 57.67 181.859 56.305 181.859 54.805C181.859 53.305 181.634 51.955 181.184 50.755C180.734 49.525 180.074 48.55 179.204 47.83C178.334 47.11 177.224 46.75 175.874 46.75C174.554 46.75 173.459 47.11 172.589 47.83C171.719 48.55 171.059 49.525 170.609 50.755C170.189 51.955 169.979 53.305 169.979 54.805C169.979 56.305 170.189 57.67 170.609 58.9C171.059 60.1 171.719 61.06 172.589 61.78C173.459 62.5 174.554 62.86 175.874 62.86ZM206.941 67.45C204.061 67.45 201.481 66.79 199.201 65.47C196.951 64.12 195.166 62.2 193.846 59.71C192.526 57.19 191.866 54.175 191.866 50.665C191.866 47.125 192.526 44.11 193.846 41.62C195.166 39.1 196.951 37.18 199.201 35.86C201.481 34.51 204.061 33.835 206.941 33.835C209.791 33.835 212.341 34.51 214.591 35.86C216.871 37.18 218.656 39.1 219.946 41.62C221.266 44.11 221.926 47.125 221.926 50.665C221.926 53.605 221.446 56.215 220.486 58.495C219.556 60.745 218.266 62.575 216.616 63.985L221.161 69.835H215.536L212.791 66.325C210.991 67.075 209.041 67.45 206.941 67.45ZM205.096 56.065H210.361L213.106 59.62C214.036 58.66 214.756 57.43 215.266 55.93C215.776 54.43 216.031 52.675 216.031 50.665C216.031 46.915 215.176 44.05 213.466 42.07C211.786 40.06 209.611 39.055 206.941 39.055C204.241 39.055 202.036 40.06 200.326 42.07C198.616 44.05 197.761 46.915 197.761 50.665C197.761 54.385 198.616 57.235 200.326 59.215C202.036 61.195 204.241 62.185 206.941 62.185C207.841 62.185 208.681 62.065 209.461 61.825L205.096 56.065ZM235.851 67.315C233.331 67.315 231.291 66.505 229.731 64.885C228.201 63.265 227.436 60.985 227.436 58.045V42.43H233.151V57.19C233.151 58.81 233.571 60.1 234.411 61.06C235.281 61.99 236.466 62.455 237.966 62.455C239.496 62.455 240.741 61.96 241.701 60.97C242.691 59.98 243.186 58.6 243.186 56.83V42.43H248.946V67H243.501L243.456 62.095C242.016 65.575 239.481 67.315 235.851 67.315ZM265.88 67.495C263.39 67.495 261.245 66.985 259.445 65.965C257.675 64.915 256.31 63.445 255.35 61.555C254.39 59.665 253.91 57.43 253.91 54.85C253.91 52.33 254.375 50.125 255.305 48.235C256.265 46.315 257.615 44.815 259.355 43.735C261.095 42.655 263.135 42.115 265.475 42.115C267.485 42.115 269.33 42.55 271.01 43.42C272.72 44.29 274.1 45.64 275.15 47.47C276.2 49.3 276.725 51.655 276.725 54.535V56.335H259.625C259.685 58.495 260.285 60.16 261.425 61.33C262.595 62.47 264.095 63.04 265.925 63.04C267.185 63.04 268.265 62.77 269.165 62.23C270.065 61.66 270.71 60.865 271.1 59.845L276.365 60.925C275.765 62.905 274.535 64.495 272.675 65.695C270.845 66.895 268.58 67.495 265.88 67.495ZM259.625 52.42H271.145C270.965 50.68 270.395 49.285 269.435 48.235C268.505 47.155 267.2 46.615 265.52 46.615C263.78 46.615 262.4 47.185 261.38 48.325C260.36 49.435 259.775 50.8 259.625 52.42ZM290.892 67.495C288.072 67.495 285.732 66.895 283.872 65.695C282.042 64.495 280.917 62.77 280.497 60.52L285.852 59.53C286.482 61.93 288.192 63.13 290.982 63.13C292.392 63.13 293.502 62.845 294.312 62.275C295.152 61.705 295.572 61.015 295.572 60.205C295.572 58.795 294.477 57.85 292.287 57.37L288.057 56.47C283.467 55.48 281.172 53.185 281.172 49.585C281.172 48.055 281.592 46.735 282.432 45.625C283.272 44.515 284.427 43.66 285.897 43.06C287.397 42.43 289.122 42.115 291.072 42.115C293.862 42.115 296.067 42.7 297.687 43.87C299.307 45.01 300.372 46.54 300.882 48.46L295.752 49.45C295.482 48.61 294.972 47.89 294.222 47.29C293.502 46.69 292.482 46.39 291.162 46.39C289.962 46.39 288.942 46.66 288.102 47.2C287.292 47.74 286.887 48.415 286.887 49.225C286.887 49.945 287.157 50.545 287.697 51.025C288.237 51.475 289.137 51.835 290.397 52.105L294.537 53.005C299.127 53.995 301.422 56.2 301.422 59.62C301.422 61.18 300.972 62.56 300.072 63.76C299.202 64.93 297.972 65.845 296.382 66.505C294.792 67.165 292.962 67.495 290.892 67.495ZM317.659 42.43V46.93H312.889V60.07C312.889 60.97 313.069 61.63 313.429 62.05C313.819 62.47 314.464 62.68 315.364 62.68C315.604 62.68 315.934 62.65 316.354 62.59C316.804 62.5 317.164 62.425 317.434 62.365L318.334 66.82C317.704 67 317.059 67.12 316.399 67.18C315.739 67.27 315.109 67.315 314.509 67.315C312.139 67.315 310.324 66.73 309.064 65.56C307.804 64.39 307.174 62.725 307.174 60.565V46.93H303.709V42.43H307.174V36.58H312.889V42.43H317.659Z" fill="black"/>
</svg>
