<svg width="85" height="79" viewBox="0 0 85 79" fill="none" xmlns="http://www.w3.org/2000/svg">
<rect width="85" height="78.4615" rx="10" fill="#1A1A1A"/>
<path d="M7 32.807C7 42.6748 14.8176 50.6689 24.4596 50.6689C34.1016 50.6689 41.9246 42.6748 41.9246 32.807C41.9246 22.9392 34.1016 14.9451 24.4596 14.9451C14.8176 14.9451 7 22.9392 7 32.807ZM10.9359 32.807C10.9359 25.1672 16.9939 18.9716 24.4596 18.9716C31.9253 18.9716 37.9833 25.1618 37.9833 32.807C37.9833 40.4521 31.9307 46.6423 24.4596 46.6423C16.9885 46.6423 10.9359 40.4467 10.9359 32.807Z" fill="white" stroke="white" stroke-width="5" stroke-miterlimit="10"/>
<path d="M26.8257 52.1273C25.848 52.1616 25.2164 53.2444 25.6677 54.1371C29.3477 61.3467 36.2577 66.6334 44.7013 67.7391C53.145 68.8448 62.1202 66.4923 67.5308 60.237C68.0852 59.5941 67.9482 58.595 67.249 58.1494L64.5802 56.4352C64.1042 56.1294 63.4864 56.1592 63.0461 56.5294C58.7929 60.0813 50.9806 62.6304 45.4649 61.9081C39.9492 61.1858 34.3798 57.0336 31.2788 52.585C31.0207 52.2119 30.6113 51.996 30.1652 52.0114L26.8238 52.1418L26.8257 52.1273Z" fill="white" stroke="white" stroke-width="3.5" stroke-miterlimit="10"/>
<path d="M63.5311 50.8571C56.0644 50.8571 50.0151 43.9068 50.0151 35.3295C50.0151 35.3295 50 19.0868 50 18.1588C50 17.2308 50.2929 17.2308 50.7074 17.2308H52.7798C53.1069 17.2308 53.3209 17.2308 53.3209 18.1588V35.5002C53.3209 41.9758 57.8951 47.2246 63.5311 47.2246C69.1672 47.2246 73.767 41.9758 73.767 35.5002V18.1588C73.767 17.2308 73.981 17.2308 74.3081 17.2308H76.3806C76.7951 17.2308 77.0879 17.2308 77.0879 18.1588C77.0879 19.0868 77.0728 35.3295 77.0728 35.3295C77.0728 43.9068 70.9979 50.8571 63.5311 50.8571Z" fill="white" stroke="white" stroke-width="5.5" stroke-miterlimit="10"/>
</svg>
