<svg width="413" height="324" viewBox="0 0 413 324" fill="none" xmlns="http://www.w3.org/2000/svg">
<path d="M8 113.83C8 172.296 54.3183 219.66 111.446 219.66C168.574 219.66 214.925 172.296 214.925 113.83C214.925 55.3643 168.574 8 111.446 8C54.3183 8 8 55.3643 8 113.83ZM31.3195 113.83C31.3195 68.5652 67.213 31.8571 111.446 31.8571C155.68 31.8571 191.573 68.5334 191.573 113.83C191.573 159.127 155.712 195.803 111.446 195.803C67.1809 195.803 31.3195 159.095 31.3195 113.83Z" fill="#E1E3EF" stroke="#E1E3EF" stroke-width="15" stroke-miterlimit="10"/>
<path d="M107.741 214.312C101.949 214.515 98.2065 220.931 100.88 226.22C122.684 268.936 163.625 300.259 213.653 306.81C263.681 313.362 318.745 293.562 350.802 256.5C354.087 252.691 353.275 246.771 349.132 244.131L333.32 233.974C330.5 232.163 326.84 232.339 324.231 234.532C299.031 255.577 250.857 276.542 218.177 272.262C185.497 267.983 152.499 243.382 134.125 217.024C132.596 214.813 130.171 213.534 127.528 213.625L107.73 214.398L107.741 214.312Z" fill="#E1E3EF" stroke="#E1E3EF" stroke-width="5" stroke-miterlimit="10"/>
<path d="M320.421 220C274.388 220 237.093 178.868 237.093 128.108C237.093 128.108 237 31.9842 237 26.4921C237 21 238.806 21 241.361 21H254.138C256.154 21 257.474 21 257.474 26.4921V129.118C257.474 167.441 285.674 198.503 320.421 198.503C355.168 198.503 383.526 167.441 383.526 129.118V26.4921C383.526 21 384.846 21 386.862 21H399.639C402.194 21 404 21 404 26.4921C404 31.9842 403.907 128.108 403.907 128.108C403.907 178.868 366.454 220 320.421 220Z" fill="#E1E3EF" stroke="#E1E3EF" stroke-width="18" stroke-miterlimit="10"/>
</svg>
