<svg width="18" height="20" viewBox="0 0 18 20" fill="none" xmlns="http://www.w3.org/2000/svg">
<path d="M3 20C2.16667 20 1.45833 19.7083 0.875 19.125C0.291667 18.5417 0 17.8333 0 17V14H3V0L4.5 1.5L6 0L7.5 1.5L9 0L10.5 1.5L12 0L13.5 1.5L15 0L16.5 1.5L18 0V17C18 17.8333 17.7083 18.5417 17.125 19.125C16.5417 19.7083 15.8333 20 15 20H3ZM15 18C15.2833 18 15.5208 17.9042 15.7125 17.7125C15.9042 17.5208 16 17.2833 16 17V3H5V14H14V17C14 17.2833 14.0958 17.5208 14.2875 17.7125C14.4792 17.9042 14.7167 18 15 18ZM6 7V5H12V7H6ZM6 10V8H12V10H6ZM14 7C13.7167 7 13.4792 6.90417 13.2875 6.7125C13.0958 6.52083 13 6.28333 13 6C13 5.71667 13.0958 5.47917 13.2875 5.2875C13.4792 5.09583 13.7167 5 14 5C14.2833 5 14.5208 5.09583 14.7125 5.2875C14.9042 5.47917 15 5.71667 15 6C15 6.28333 14.9042 6.52083 14.7125 6.7125C14.5208 6.90417 14.2833 7 14 7ZM14 10C13.7167 10 13.4792 9.90417 13.2875 9.7125C13.0958 9.52083 13 9.28333 13 9C13 8.71667 13.0958 8.47917 13.2875 8.2875C13.4792 8.09583 13.7167 8 14 8C14.2833 8 14.5208 8.09583 14.7125 8.2875C14.9042 8.47917 15 8.71667 15 9C15 9.28333 14.9042 9.52083 14.7125 9.7125C14.5208 9.90417 14.2833 10 14 10ZM3 18H12V16H2V17C2 17.2833 2.09583 17.5208 2.2875 17.7125C2.47917 17.9042 2.71667 18 3 18Z" fill="#1A1A1A"/>
</svg>
