<svg width="24" height="20" viewBox="0 0 24 20" fill="none" xmlns="http://www.w3.org/2000/svg">
<path d="M21.333 19.8333H2.66634C2.02467 19.8333 1.47537 19.6049 1.01842 19.1479C0.56148 18.691 0.333008 18.1417 0.333008 17.5V3.5C0.333008 2.85833 0.56148 2.30903 1.01842 1.85208C1.47537 1.39514 2.02467 1.16667 2.66634 1.16667H14.333V3.5H2.66634V17.5H21.333V9.33333H23.6663V17.5C23.6663 18.1417 23.4379 18.691 22.9809 19.1479C22.524 19.6049 21.9747 19.8333 21.333 19.8333ZM4.99967 15.1667H13.1663V11.6667H4.99967V15.1667ZM4.99967 9.33333H13.1663V5.83333H4.99967V9.33333ZM15.4997 15.1667H18.9997V9.33333H15.4997V15.1667ZM18.9997 7V4.66667H16.6663V2.33333H18.9997V0H21.333V2.33333H23.6663V4.66667H21.333V7H18.9997Z" fill="#1F1F1F"/>
</svg>
