<svg width="23" height="20" viewBox="0 0 23 20" fill="none" xmlns="http://www.w3.org/2000/svg">
<path fill-rule="evenodd" clip-rule="evenodd" d="M20.5 7.25V17.375C20.5 17.9717 20.2629 18.544 19.841 18.966C19.419 19.3879 18.8467 19.625 18.25 19.625H4.75C4.15326 19.625 3.58097 19.3879 3.15901 18.966C2.73705 18.544 2.5 17.9717 2.5 17.375V7.25C1.90326 7.25 1.33097 7.01295 0.90901 6.59099C0.487053 6.16903 0.25 5.59674 0.25 5V2.75C0.25 2.15326 0.487053 1.58097 0.90901 1.15901C1.33097 0.737053 1.90326 0.5 2.5 0.5H20.5C21.0967 0.5 21.669 0.737053 22.091 1.15901C22.5129 1.58097 22.75 2.15326 22.75 2.75V5C22.75 5.59674 22.5129 6.16903 22.091 6.59099C21.669 7.01295 21.0967 7.25 20.5 7.25ZM4.75 7.25V17.375H18.25V7.25H4.75ZM2.5 2.75V5H20.5V2.75H2.5ZM9.25 11.1875C8.95163 11.1875 8.66548 11.069 8.4545 10.858C8.24353 10.647 8.125 10.3609 8.125 10.0625C8.125 9.76413 8.24353 9.47798 8.4545 9.267C8.66548 9.05603 8.95163 8.9375 9.25 8.9375H13.75C14.0484 8.9375 14.3345 9.05603 14.5455 9.267C14.7565 9.47798 14.875 9.76413 14.875 10.0625C14.875 10.3609 14.7565 10.647 14.5455 10.858C14.3345 11.069 14.0484 11.1875 13.75 11.1875H9.25Z" fill="#1A1A1A"/>
</svg>
