<svg width="28" height="25" viewBox="0 0 28 25" fill="none" xmlns="http://www.w3.org/2000/svg">
<path d="M2.33466 18.9406L6.9824 23.6539C7.43749 24.1154 8.17338 24.1154 8.62363 23.6539L13.2714 18.9406C13.7265 18.4791 13.7265 17.7329 13.2714 17.2763C12.8163 16.8197 12.0804 16.8148 11.6301 17.2763L8.96737 19.9766V3.18076C8.96737 2.52778 8.44934 2.00245 7.80544 2.00245C7.16153 2.00245 6.6435 2.52778 6.6435 3.18076V19.9766L3.98074 17.2714C3.52565 16.8099 2.78975 16.8099 2.33951 17.2714C1.88926 17.7329 1.88441 18.4791 2.33951 18.9357L2.33466 18.9406ZM19.3764 2.34613L14.7286 7.05936C14.2735 7.52087 14.2735 8.26713 14.7286 8.72372C15.1837 9.18032 15.9196 9.18523 16.3699 8.72372L19.0326 6.02343V22.8192C19.0326 23.4722 19.5507 23.9975 20.1946 23.9975C20.8385 23.9975 21.3565 23.4722 21.3565 22.8192V6.02343L24.0193 8.72372C24.4744 9.18523 25.2102 9.18523 25.6605 8.72372C26.1107 8.26222 26.1156 7.51596 25.6605 7.05936L21.0224 2.34613C20.5673 1.88462 19.8315 1.88462 19.3812 2.34613H19.3764Z" fill="#787878"/>
</svg>
