<svg width="180" height="160" viewBox="0 0 180 160" fill="none" xmlns="http://www.w3.org/2000/svg">
<path d="M65.8148 12.7675C67.8865 12.4797 70.0325 12.8981 71.8732 13.5314C73.711 14.1637 75.2073 14.9975 75.9619 15.5L75.9764 15.5094L75.9907 15.5178C87.6854 22.2229 87.6834 22.2219 103.815 31.7826C104.868 32.4068 105.615 32.9492 106.205 33.5682C106.79 34.1827 107.241 34.8938 107.673 35.8781C107.894 36.3808 108.107 36.9469 108.329 37.5986L130.492 123.092C132.016 128.973 128.485 134.976 122.604 136.5L47.1847 156.051C39.7003 157.992 32.06 153.497 30.1196 146.013L3.26218 42.4088C1.46053 35.4588 5.63407 28.3642 12.584 26.5625L65.7883 12.7703C65.7971 12.7691 65.806 12.7687 65.8148 12.7675Z" fill="#FEFEFE"/>
<path d="M65.8148 12.7675L65.6772 11.777L65.6772 11.777L65.8148 12.7675ZM71.8732 13.5314L72.1985 12.5858L72.1985 12.5858L71.8732 13.5314ZM75.9619 15.5L75.4076 16.3323L75.4142 16.3367L75.4208 16.341L75.9619 15.5ZM75.9764 15.5094L75.4353 16.3503L75.4522 16.3611L75.4694 16.3713L75.9764 15.5094ZM75.9907 15.5178L75.4836 16.3797L75.4933 16.3853L75.9907 15.5178ZM103.815 31.7826L104.325 30.9223L103.815 31.7826ZM106.205 33.5682L106.929 32.8784L106.929 32.8783L106.205 33.5682ZM107.673 35.8781L108.589 35.4758L108.589 35.4758L107.673 35.8781ZM108.329 37.5986L109.297 37.3477L109.288 37.3117L109.276 37.2766L108.329 37.5986ZM130.492 123.092L131.46 122.841L131.46 122.841L130.492 123.092ZM30.1196 146.013L29.1516 146.263L29.1516 146.263L30.1196 146.013ZM3.26218 42.4088L2.29418 42.6597L3.26218 42.4088ZM65.7883 12.7703L65.6576 11.7789L65.5968 11.7869L65.5374 11.8023L65.7883 12.7703ZM65.8148 12.7675L65.9524 13.7579C67.8114 13.4997 69.7898 13.8721 71.5479 14.477L71.8732 13.5314L72.1985 12.5858C70.2752 11.9241 67.9615 11.4597 65.6772 11.777L65.8148 12.7675ZM71.8732 13.5314L71.5479 14.477C73.2978 15.0791 74.7177 15.8729 75.4076 16.3323L75.9619 15.5L76.5162 14.6677C75.6969 14.122 74.1242 13.2483 72.1985 12.5858L71.8732 13.5314ZM75.9619 15.5L75.4208 16.341L75.4353 16.3503L75.9764 15.5094L76.5175 14.6684L76.503 14.659L75.9619 15.5ZM75.9764 15.5094L75.4694 16.3713L75.4837 16.3797L75.9907 15.5178L76.4978 14.6558L76.4835 14.6474L75.9764 15.5094ZM75.9907 15.5178L75.4933 16.3853C87.1825 23.0873 87.1762 23.0838 103.305 32.6429L103.815 31.7826L104.325 30.9223C88.1906 21.3601 88.1882 21.3584 76.4881 14.6502L75.9907 15.5178ZM103.815 31.7826L103.305 32.6429C104.323 33.2463 104.982 33.7343 105.481 34.258L106.205 33.5682L106.929 32.8783C106.248 32.1642 105.413 31.5672 104.325 30.9223L103.815 31.7826ZM106.205 33.5682L105.481 34.2579C105.967 34.7686 106.359 35.3737 106.758 36.2803L107.673 35.8781L108.589 35.4758C108.122 34.4138 107.613 33.5969 106.929 32.8784L106.205 33.5682ZM107.673 35.8781L106.758 36.2803C106.963 36.7482 107.166 37.2855 107.382 37.9207L108.329 37.5986L109.276 37.2766C109.048 36.6083 108.825 36.0134 108.589 35.4758L107.673 35.8781ZM108.329 37.5986L107.361 37.8496L129.524 123.343L130.492 123.092L131.46 122.841L109.297 37.3477L108.329 37.5986ZM130.492 123.092L129.524 123.343C130.909 128.689 127.699 134.147 122.353 135.532L122.604 136.5L122.855 137.468C129.27 135.805 133.122 129.256 131.46 122.841L130.492 123.092ZM122.604 136.5L122.353 135.532L46.9338 155.083L47.1847 156.051L47.4357 157.019L122.855 137.468L122.604 136.5ZM47.1847 156.051L46.9338 155.083C39.984 156.885 32.8894 152.711 31.0876 145.762L30.1196 146.013L29.1516 146.263C31.2306 154.282 39.4166 159.098 47.4357 157.019L47.1847 156.051ZM30.1196 146.013L31.0876 145.762L4.23019 42.1578L3.26218 42.4088L2.29418 42.6597L29.1516 146.263L30.1196 146.013ZM3.26218 42.4088L4.23019 42.1578C2.56712 35.7425 6.41962 29.1936 12.835 27.5305L12.584 26.5625L12.3331 25.5945C4.84852 27.5348 0.353938 35.1751 2.29418 42.6597L3.26218 42.4088ZM12.584 26.5625L12.835 27.5305L66.0392 13.7383L65.7883 12.7703L65.5374 11.8023L12.3331 25.5945L12.584 26.5625ZM65.7883 12.7703L65.919 13.7617C65.9082 13.7631 65.8999 13.764 65.8961 13.7644C65.8929 13.7647 65.8902 13.765 65.894 13.7646C65.8961 13.7644 65.9038 13.7637 65.9128 13.7628C65.9223 13.7618 65.936 13.7602 65.9524 13.7579L65.8148 12.7675L65.6772 11.777C65.6892 11.7753 65.6985 11.7743 65.7036 11.7737C65.7081 11.7733 65.7115 11.773 65.7091 11.7732C65.7086 11.7732 65.7063 11.7734 65.704 11.7736C65.7016 11.7739 65.698 11.7742 65.6938 11.7747C65.6855 11.7755 65.6728 11.7769 65.6576 11.7789L65.7883 12.7703Z" fill="#D9D9D9"/>
<rect x="16.7891" y="36.9695" width="34.0208" height="4.28043" rx="2.14021" transform="rotate(-14.533 16.7891 36.9695)" fill="#D9D9D9"/>
<rect x="19.582" y="47.7424" width="19.562" height="4.28043" rx="2.14021" transform="rotate(-14.533 19.582 47.7424)" fill="#D9D9D9"/>
<path d="M66.3838 13.0581L72.2914 35.8472C74.1174 42.8911 79.0933 45.1387 84.8564 43.6447L108.321 37.562" stroke="#D9D9D9" stroke-width="2"/>
<path d="M145.574 19.4004C147.543 20.1059 149.25 21.4715 150.587 22.8861C151.923 24.2983 152.862 25.7308 153.297 26.526L153.306 26.541L153.315 26.555C160.568 37.9179 160.567 37.9162 170.427 53.8663C171.071 54.9076 171.481 55.7345 171.717 56.5563C171.95 57.3723 172.02 58.2111 171.947 59.2838C171.909 59.8316 171.836 60.4321 171.73 61.1123L151.73 147.137C150.354 153.054 144.442 156.736 138.524 155.36L62.6364 137.717C55.1054 135.966 50.4198 128.441 52.1705 120.91L76.4076 16.6623C78.0335 9.6691 85.0207 5.31804 92.0138 6.94392L145.549 19.3906C145.557 19.3936 145.565 19.3974 145.574 19.4004Z" fill="#FEFEFE"/>
<path d="M145.574 19.4004L145.911 18.459L145.911 18.459L145.574 19.4004ZM150.587 22.8861L151.314 22.1991L151.314 22.1991L150.587 22.8861ZM153.297 26.526L152.42 27.0064L152.424 27.0134L152.428 27.0202L153.297 26.526ZM153.306 26.541L152.437 27.0352L152.447 27.0526L152.457 27.0696L153.306 26.541ZM153.315 26.555L152.466 27.0837L152.472 27.0931L153.315 26.555ZM170.427 53.8663L171.278 53.3404L170.427 53.8663ZM171.717 56.5563L172.678 56.2808L172.678 56.2808L171.717 56.5563ZM171.947 59.2838L172.944 59.3518L172.944 59.3518L171.947 59.2838ZM171.73 61.1123L172.704 61.3388L172.713 61.3026L172.718 61.2659L171.73 61.1123ZM151.73 147.137L152.704 147.364L152.704 147.364L151.73 147.137ZM138.524 155.36L138.751 154.386L138.524 155.36ZM62.6364 137.717L62.4099 138.691L62.6364 137.717ZM52.1705 120.91L51.1965 120.684L51.1965 120.684L52.1705 120.91ZM76.4076 16.6623L77.3817 16.8887L76.4076 16.6623ZM145.549 19.3906L145.893 18.4515L145.835 18.4304L145.775 18.4166L145.549 19.3906ZM145.574 19.4004L145.236 20.3417C147.003 20.9749 148.583 22.222 149.861 23.5731L150.587 22.8861L151.314 22.1991C149.917 20.7211 148.082 19.2369 145.911 18.459L145.574 19.4004ZM150.587 22.8861L149.861 23.5731C151.132 24.9178 152.022 26.2795 152.42 27.0064L153.297 26.526L154.174 26.0455C153.701 25.1822 152.713 23.6789 151.314 22.1991L150.587 22.8861ZM153.297 26.526L152.428 27.0202L152.437 27.0352L153.306 26.541L154.175 26.0467L154.167 26.0317L153.297 26.526ZM153.306 26.541L152.457 27.0696L152.466 27.0837L153.315 26.555L154.164 26.0264L154.155 26.0124L153.306 26.541ZM153.315 26.555L152.472 27.0931C159.722 38.4507 159.718 38.4447 169.576 54.3921L170.427 53.8663L171.278 53.3404C161.416 37.3878 161.414 37.3852 154.158 26.017L153.315 26.555ZM170.427 53.8663L169.576 54.3921C170.199 55.3989 170.556 56.1365 170.755 56.8319L171.717 56.5563L172.678 56.2808C172.406 55.3325 171.943 54.4163 171.278 53.3404L170.427 53.8663ZM171.717 56.5563L170.755 56.8318C170.95 57.5098 171.016 58.2277 170.949 59.2157L171.947 59.2838L172.944 59.3518C173.023 58.1945 172.951 57.2348 172.678 56.2808L171.717 56.5563ZM171.947 59.2838L170.949 59.2157C170.914 59.7256 170.845 60.2958 170.742 60.9588L171.73 61.1123L172.718 61.2659C172.827 60.5684 172.904 59.9377 172.944 59.3518L171.947 59.2838ZM171.73 61.1123L170.756 60.8859L150.756 146.911L151.73 147.137L152.704 147.364L172.704 61.3388L171.73 61.1123ZM151.73 147.137L150.756 146.911C149.505 152.29 144.13 155.637 138.751 154.386L138.524 155.36L138.298 156.334C144.753 157.835 151.203 153.819 152.704 147.364L151.73 147.137ZM138.524 155.36L138.751 154.386L62.8629 136.743L62.6364 137.717L62.4099 138.691L138.298 156.334L138.524 155.36ZM62.6364 137.717L62.8629 136.743C55.8698 135.117 51.5188 128.13 53.1445 121.137L52.1705 120.91L51.1965 120.684C49.3207 128.753 54.341 136.815 62.4099 138.691L62.6364 137.717ZM52.1705 120.91L53.1445 121.137L77.3817 16.8887L76.4076 16.6623L75.4336 16.4358L51.1965 120.684L52.1705 120.91ZM76.4076 16.6623L77.3817 16.8887C78.8825 10.4335 85.3321 6.41713 91.7874 7.91794L92.0138 6.94392L92.2403 5.9699C84.7092 4.21895 77.1846 8.9047 75.4336 16.4358L76.4076 16.6623ZM92.0138 6.94392L91.7874 7.91794L145.322 20.3646L145.549 19.3906L145.775 18.4166L92.2403 5.9699L92.0138 6.94392ZM145.549 19.3906L145.205 20.3296C145.195 20.3259 145.187 20.3228 145.183 20.3213C145.181 20.3202 145.178 20.3191 145.182 20.3206C145.183 20.3214 145.191 20.3243 145.199 20.3277C145.208 20.3312 145.221 20.3362 145.236 20.3417L145.574 19.4004L145.911 18.459C145.922 18.463 145.931 18.4664 145.936 18.4683C145.94 18.47 145.943 18.4713 145.941 18.4704C145.941 18.4702 145.938 18.4693 145.936 18.4685C145.934 18.4675 145.931 18.4662 145.927 18.4646C145.919 18.4615 145.907 18.4568 145.893 18.4515L145.549 19.3906Z" fill="#D9D9D9"/>
<rect x="90.915" y="18.1143" width="34.0208" height="4.28043" rx="2.14021" transform="rotate(13.0885 90.915 18.1143)" fill="#D9D9D9"/>
<rect x="88.3945" y="28.9543" width="19.562" height="4.28043" rx="2.14021" transform="rotate(13.0885 88.3945 28.9543)" fill="#D9D9D9"/>
<path d="M145.942 19.9216L140.611 42.8524C138.963 49.9401 142.33 54.2385 148.129 55.5867L171.739 61.0759" stroke="#D9D9D9" stroke-width="2"/>
<g filter="url(#filter0_d_267_83)">
<path d="M144.214 67.4206L95.8893 56.1853C93.9822 55.7419 92.076 56.9376 91.6297 58.8572L88.8013 71.0226L144.03 83.863L146.858 71.6975C147.304 69.7779 146.121 67.864 144.214 67.4206Z" fill="url(#paint0_linear_267_83)"/>
<path d="M81.5107 102.38L78.7054 114.447C78.2591 116.366 79.4422 118.28 81.3493 118.723L129.674 129.959C131.581 130.402 133.487 129.206 133.934 127.287L136.739 115.22L81.5107 102.38Z" fill="url(#paint1_linear_267_83)"/>
<path d="M88.8008 71.0225L144.029 83.8628L140.393 99.5009L85.165 86.6605L88.8008 71.0225Z" fill="url(#paint2_linear_267_83)"/>
<path d="M85.166 86.6609L140.394 99.5012L136.739 115.223L81.5108 102.382L85.166 86.6609Z" fill="url(#paint3_linear_267_83)"/>
<path d="M95.7762 56.6724L144.101 67.9076C145.736 68.2877 146.755 69.931 146.371 71.5846L133.446 127.174C133.062 128.828 131.422 129.852 129.787 129.472L81.4628 118.236C79.8277 117.856 78.808 116.214 79.1923 114.56L92.1167 58.9707C92.5011 57.3171 94.141 56.2922 95.7762 56.6724Z" stroke="#B6B6B6" stroke-opacity="0.4"/>
<path opacity="0.05" d="M107.42 71.6836L89.6104 67.543L79.9171 109.235L97.7265 113.376C101.235 114.192 104.745 111.99 105.566 108.458L112.286 79.5552C113.107 76.0235 110.928 72.4993 107.42 71.6836Z" fill="black"/>
<path opacity="0.07" d="M97.9472 111.596L80.3207 107.498L89.4756 68.1213L107.102 72.2194C110.077 72.9112 111.924 75.8986 111.228 78.8935L104.594 107.427C103.896 110.421 100.921 112.287 97.9472 111.596Z" fill="black"/>
<path opacity="0.09" d="M98.1665 109.816L80.7247 105.761L89.3408 68.7014L106.783 72.7566C109.223 73.3239 110.738 75.7746 110.167 78.231L103.619 106.396C103.049 108.853 100.607 110.383 98.1665 109.816Z" fill="black"/>
<path d="M98.3866 108.036L70.7725 101.616C68.8654 101.173 67.6822 99.2588 68.1285 97.3393L74.5907 69.5444C75.037 67.6248 76.9431 66.4292 78.8502 66.8726L106.464 73.2928C108.371 73.7361 109.555 75.65 109.108 77.5696L102.646 105.364C102.2 107.284 100.294 108.48 98.3866 108.036Z" fill="url(#paint4_linear_267_83)"/>
<path d="M98.238 80.5356L92.636 92.5342L92.6134 79.2279L88.8389 78.3504L82.7645 90.6511L83.0399 77.0022L79.6641 76.2173L79.6707 94.5296L83.73 95.4734L89.7919 82.8036L89.6446 96.8485L93.5295 97.7517L101.614 81.3205L98.238 80.5356Z" fill="#FEFEFE"/>
</g>
<path d="M110.497 1C112.756 1.37333 114.886 2.40931 116.658 3.5752C118.57 4.8335 120.033 6.2204 120.748 7.01465L120.76 7.02734L120.771 7.03906C132.103 18.0488 132.102 18.0474 147.642 33.5869C148.658 34.6037 149.354 35.4421 149.848 36.3242C150.339 37.2011 150.645 38.147 150.848 39.3936C150.907 39.7592 150.956 40.148 151 40.5654V146.56C151 152.635 146.075 157.56 140 157.56H44C36.2681 157.56 30.0002 151.291 30 143.56V14C30 6.82032 35.8203 1 43 1H110.497Z" fill="#FEFEFE"/>
<path d="M110.497 1L110.66 0.0133801L110.579 0H110.497V1ZM116.658 3.5752L117.208 2.73985L117.208 2.73983L116.658 3.5752ZM120.748 7.01465L120.005 7.68368L120.013 7.69293L120.748 7.01465ZM120.76 7.02734L120.025 7.70562L120.039 7.72031L120.053 7.73445L120.76 7.02734ZM120.771 7.03906L120.064 7.74617L120.069 7.75127L120.075 7.75629L120.771 7.03906ZM147.642 33.5869L148.349 32.8798L148.349 32.8798L147.642 33.5869ZM149.848 36.3242L150.72 35.8358L150.72 35.8357L149.848 36.3242ZM150.848 39.3936L151.835 39.2329L151.835 39.2329L150.848 39.3936ZM151 40.5654H152V40.5134L151.995 40.4617L151 40.5654ZM151 146.56L152 146.56V146.56H151ZM44 157.56V158.56V157.56ZM30 143.56H29V143.56L30 143.56ZM30 14L29 14V14H30ZM110.497 1L110.334 1.98662C112.409 2.32947 114.407 3.29069 116.109 4.41056L116.658 3.5752L117.208 2.73983C115.366 1.52794 113.104 0.417184 110.66 0.0133801L110.497 1ZM116.658 3.5752L116.108 4.41054C117.943 5.61789 119.342 6.94724 120.005 7.68363L120.748 7.01465L121.491 6.34567C120.724 5.49357 119.197 4.04912 117.208 2.73985L116.658 3.5752ZM120.748 7.01465L120.013 7.69293L120.025 7.70562L120.76 7.02734L121.495 6.34906L121.483 6.33637L120.748 7.01465ZM120.76 7.02734L120.053 7.73445L120.064 7.74617L120.771 7.03906L121.479 6.33196L121.467 6.32024L120.76 7.02734ZM120.771 7.03906L120.075 7.75629C131.402 18.7617 131.397 18.7567 146.934 34.294L147.642 33.5869L148.349 32.8798C132.807 17.3381 132.805 17.336 121.468 6.32183L120.771 7.03906ZM147.642 33.5869L146.934 34.294C147.922 35.282 148.546 36.0455 148.975 36.8127L149.848 36.3242L150.72 35.8357C150.162 34.8386 149.394 33.9255 148.349 32.8798L147.642 33.5869ZM149.848 36.3242L148.975 36.8127C149.396 37.5641 149.672 38.3926 149.861 39.5542L150.848 39.3936L151.835 39.2329C151.618 37.9015 151.281 36.8381 150.72 35.8358L149.848 36.3242ZM150.848 39.3936L149.861 39.5542C149.916 39.8959 149.963 40.2649 150.005 40.6691L151 40.5654L151.995 40.4617C151.95 40.0311 151.898 39.6225 151.835 39.2329L150.848 39.3936ZM151 40.5654H150V146.56H151H152V40.5654H151ZM151 146.56L150 146.56C150 152.082 145.523 156.56 140 156.56V157.56V158.56C146.627 158.56 152 153.187 152 146.56L151 146.56ZM140 157.56V156.56H44V157.56V158.56H140V157.56ZM44 157.56V156.56C36.8204 156.56 31.0001 150.739 31 143.56L30 143.56L29 143.56C29.0002 151.844 35.7158 158.56 44 158.56V157.56ZM30 143.56H31V14H30H29V143.56H30ZM30 14L31 14C31 7.3726 36.3726 2 43 2V1V0C35.268 0 29 6.26803 29 14L30 14ZM43 1V2H110.497V1V0H43V1Z" fill="#D9D9D9"/>
<rect x="47" y="14" width="40" height="5" rx="2.5" fill="#D9D9D9"/>
<rect x="47" y="27" width="23" height="5" rx="2.5" fill="#D9D9D9"/>
<path d="M110.5 1.5V29C110.5 37.5 115.5 41.5 122.5 41.5H151" stroke="#D9D9D9" stroke-width="2"/>
<g filter="url(#filter1_d_267_83)">
<path d="M121.167 56H62.8337C60.5316 56 58.667 57.8646 58.667 60.1667V74.7563H125.334V60.1667C125.334 57.8646 123.469 56 121.167 56Z" fill="url(#paint5_linear_267_83)"/>
<path d="M58.667 112.363V126.833C58.667 129.135 60.5316 131 62.8337 131H121.167C123.469 131 125.334 129.135 125.334 126.833V112.363H58.667Z" fill="url(#paint6_linear_267_83)"/>
<path d="M58.667 74.7563H125.334V93.5105H58.667V74.7563Z" fill="url(#paint7_linear_267_83)"/>
<path d="M58.667 93.5105H125.334V112.365H58.667V93.5105Z" fill="url(#paint8_linear_267_83)"/>
<path d="M62.834 56.5H121.167C123.193 56.5 124.834 58.1411 124.834 60.167V126.833C124.834 128.859 123.193 130.5 121.167 130.5H62.834C60.808 130.5 59.167 128.859 59.167 126.833V60.167C59.167 58.1411 60.808 56.5 62.834 56.5Z" stroke="#B6B6B6" stroke-opacity="0.4"/>
<path opacity="0.05" d="M80.1649 70.5833H58.667V120.583H80.1649C84.4003 120.583 87.8337 117.15 87.8337 112.915V78.252C87.8337 74.0166 84.4003 70.5833 80.1649 70.5833Z" fill="black"/>
<path opacity="0.07" d="M79.9441 118.5H58.667V71.2771H79.9441C83.5357 71.2771 86.4462 74.1875 86.4462 77.7792V111.998C86.4441 115.59 83.5337 118.5 79.9441 118.5Z" fill="black"/>
<path opacity="0.09" d="M79.7212 116.417H58.667V71.9729H79.7212C82.667 71.9729 85.0545 74.3604 85.0545 77.3062V111.083C85.0566 114.029 82.667 116.417 79.7212 116.417Z" fill="black"/>
<path d="M79.5 114.333H46.1667C43.8646 114.333 42 112.469 42 110.167V76.8334C42 74.5313 43.8646 72.6667 46.1667 72.6667H79.5C81.8021 72.6667 83.6667 74.5313 83.6667 76.8334V110.167C83.6667 112.469 81.8021 114.333 79.5 114.333Z" fill="url(#paint9_linear_267_83)"/>
<path d="M72.0068 83.0833L68.7859 98.2166L65.2172 83.0833H60.6609L56.9797 98.6853L53.6609 83.0833H49.5859L54.4693 103.917H59.3693L62.938 87.8978L66.5089 103.917H71.1984L76.0818 83.0833H72.0068Z" fill="#FEFEFE"/>
</g>
<defs>
<filter id="filter0_d_267_83" x="64.0342" y="56.093" width="86.918" height="81.9585" filterUnits="userSpaceOnUse" color-interpolation-filters="sRGB">
<feFlood flood-opacity="0" result="BackgroundImageFix"/>
<feColorMatrix in="SourceAlpha" type="matrix" values="0 0 0 0 0 0 0 0 0 0 0 0 0 0 0 0 0 0 127 0" result="hardAlpha"/>
<feOffset dy="4"/>
<feGaussianBlur stdDeviation="2"/>
<feComposite in2="hardAlpha" operator="out"/>
<feColorMatrix type="matrix" values="0 0 0 0 0.760784 0 0 0 0 0.760784 0 0 0 0 0.760784 0 0 0 1 0"/>
<feBlend mode="normal" in2="BackgroundImageFix" result="effect1_dropShadow_267_83"/>
<feBlend mode="normal" in="SourceGraphic" in2="effect1_dropShadow_267_83" result="shape"/>
</filter>
<filter id="filter1_d_267_83" x="38" y="56" width="91.334" height="83" filterUnits="userSpaceOnUse" color-interpolation-filters="sRGB">
<feFlood flood-opacity="0" result="BackgroundImageFix"/>
<feColorMatrix in="SourceAlpha" type="matrix" values="0 0 0 0 0 0 0 0 0 0 0 0 0 0 0 0 0 0 127 0" result="hardAlpha"/>
<feOffset dy="4"/>
<feGaussianBlur stdDeviation="2"/>
<feComposite in2="hardAlpha" operator="out"/>
<feColorMatrix type="matrix" values="0 0 0 0 0.760784 0 0 0 0 0.760784 0 0 0 0 0.760784 0 0 0 1 0"/>
<feBlend mode="normal" in2="BackgroundImageFix" result="effect1_dropShadow_267_83"/>
<feBlend mode="normal" in="SourceGraphic" in2="effect1_dropShadow_267_83" result="shape"/>
</filter>
<linearGradient id="paint0_linear_267_83" x1="116.43" y1="77.3785" x2="119.87" y2="62.5847" gradientUnits="userSpaceOnUse">
<stop stop-color="#EFEFEF"/>
<stop offset="1" stop-color="#EFEFEF"/>
</linearGradient>
<linearGradient id="paint1_linear_267_83" x1="105.512" y1="124.341" x2="109.125" y2="108.8" gradientUnits="userSpaceOnUse">
<stop stop-color="#C4C4C4"/>
<stop offset="1" stop-color="#C5C5C5"/>
</linearGradient>
<linearGradient id="paint2_linear_267_83" x1="128.719" y1="24.523" x2="128.743" y2="24.417" gradientUnits="userSpaceOnUse">
<stop stop-color="#DBDBDB"/>
<stop offset="1" stop-color="#DBDBDB"/>
</linearGradient>
<linearGradient id="paint3_linear_267_83" x1="83.3384" y1="94.5216" x2="138.567" y2="107.362" gradientUnits="userSpaceOnUse">
<stop stop-color="#CDCDCD"/>
<stop offset="1" stop-color="#CDCDCD"/>
</linearGradient>
<linearGradient id="paint4_linear_267_83" x1="76.382" y1="67.6611" x2="101.43" y2="107.592" gradientUnits="userSpaceOnUse">
<stop stop-color="#CECECE"/>
<stop offset="1" stop-color="#ADADAD"/>
</linearGradient>
<linearGradient id="paint5_linear_267_83" x1="92.0003" y1="74.6792" x2="92.0003" y2="56.9375" gradientUnits="userSpaceOnUse">
<stop stop-color="#EFEFEF"/>
<stop offset="1" stop-color="#EFEFEF"/>
</linearGradient>
<linearGradient id="paint6_linear_267_83" x1="92.0003" y1="131" x2="92.0003" y2="112.363" gradientUnits="userSpaceOnUse">
<stop stop-color="#C4C4C4"/>
<stop offset="1" stop-color="#C5C5C5"/>
</linearGradient>
<linearGradient id="paint7_linear_267_83" x1="92.0003" y1="11.2918" x2="92.0003" y2="11.1647" gradientUnits="userSpaceOnUse">
<stop stop-color="#DBDBDB"/>
<stop offset="1" stop-color="#DBDBDB"/>
</linearGradient>
<linearGradient id="paint8_linear_267_83" x1="58.667" y1="102.938" x2="125.334" y2="102.938" gradientUnits="userSpaceOnUse">
<stop stop-color="#CDCDCD"/>
<stop offset="1" stop-color="#CDCDCD"/>
</linearGradient>
<linearGradient id="paint9_linear_267_83" x1="43.55" y1="74.2167" x2="82.6125" y2="113.277" gradientUnits="userSpaceOnUse">
<stop stop-color="#CECECE"/>
<stop offset="1" stop-color="#ADADAD"/>
</linearGradient>
</defs>
</svg>
